PathFileType	4	(X/Y/Z)	Patient4_TMGait_0pt4_02_left_11.trc.trc
DataRate	CameraRate	NumFrames	NumMarkers	Units	OrigDataRate	OrigDataStartFrame	OrigNumFrames
76.502732240437	76.502732240437	6	33	mm	76.502732240437	89	       141
Frame#	Time	Sacral			L.Shoulder			Chest			R.Shoulder			Neck			R.ASIS			L.ASIS			R.Thigh.Superior			R.Thigh.Lateral			R.Thigh.Inferior			R.Patella			L.Thigh.Superior			L.Thigh.Lateral			L.Thigh.Inferior			L.Patella			L.Shank.Superior			L.Shank.Lateral			L.Shank.Inferior			R.Shank.Superior			R.Shank.Lateral			R.Shank.Inferior			R.Heel			R.Midfoot.Superior			R.Midfoot.Lateral			R.Toe			L.Heel			L.Midfoot.Lateral			L.Midfoot.Superior			L.Toe			L.Elbow			L.Wrist			R.Elbow			R.Wrist			
		X1	Y1	Z1	X2	Y2	Z2	X3	Y3	Z3	X4	Y4	Z4	X5	Y5	Z5	X6	Y6	Z6	X7	Y7	Z7	X8	Y8	Z8	X9	Y9	Z9	X10	Y10	Z10	X11	Y11	Z11	X12	Y12	Z12	X13	Y13	Z13	X14	Y14	Z14	X15	Y15	Z15	X16	Y16	Z16	X17	Y17	Z17	X18	Y18	Z18	X19	Y19	Z19	X20	Y20	Z20	X21	Y21	Z21	X22	Y22	Z22	X23	Y23	Z23	X24	Y24	Z24	X25	Y25	Z25	X26	Y26	Z26	X27	Y27	Z27	X28	Y28	Z28	X29	Y29	Z29	X30	Y30	Z30	X31	Y31	Z31	X32	Y32	Z32	X33	Y33	Z33	

89	15.850285714286	871.073293445916	999.657059142222	455.205494737586	1052.739630678923	1432.772143093059	282.590385275159	1137.481739555095	1372.543105892873	456.648306171326	1028.540028760676	1444.020323762506	617.033625565159	1019.119509560622	1496.132238685331	433.500561982314	1093.029365469685	949.074854769223	593.301716414686	1098.725206264434	964.194474703072	317.648717309710	1147.565135380854	747.392768464750	563.160177599101	1069.941768246226	634.635991272323	621.910204249787	1152.381978245163	585.366192307714	544.833547699303	1157.054972225178	496.971930338548	551.757792641445	1127.297653258260	739.662468646036	339.058485383129	1033.090211831210	631.083998558575	267.798582785028	1113.452199993426	543.081942327699	325.642318871661	1104.378436383922	462.117542225114	321.477744439963	1045.190240629702	402.682500604317	314.842668843960	913.335970668053	336.225195337318	268.736790045274	923.498507859209	206.811278163280	325.154276602713	1129.531380845016	407.547242149193	559.742671576911	1059.495826440898	304.201369044288	623.483932148797	1102.242172509472	208.314727180264	562.389446745697	971.454522103115	43.264132264131	535.288909547798	1141.394263254458	97.933993293269	573.037384288198	1053.908405589434	37.675104519206	611.372132947954	1262.040655076820	45.362942111606	602.936994421035	752.930713919684	98.233518864662	370.314275081819	816.398677035775	68.275128697345	288.304599831054	914.430562135867	106.908443335247	305.383446227518	1019.325671576742	35.799005634037	275.111272172919	1079.239106393490	1082.539967471200	164.031721150141	1219.057247839832	860.288951217863	148.078860674466	974.975017866624	1108.747573186998	749.659559762781	1173.333955376033	944.001243754678	762.221523505288	
90	15.863357142857	870.733705400718	999.848765355371	459.737595055927	1051.488821074922	1432.822871724812	285.779760460158	1137.885125551371	1372.417272289202	458.957580304491	1030.731091444490	1444.055956477089	620.370232345381	1019.470512929325	1496.154537285423	437.097938429370	1093.826701436434	948.759087916643	595.711522306376	1097.088340932413	964.344522869157	320.280215847187	1146.741793307807	746.626522062727	566.428772070718	1067.519566494390	634.377392101237	624.336121641226	1150.021664221668	584.670667994714	547.643485269599	1153.774916632003	496.367343336602	553.942595658647	1130.817504554610	741.532323158117	341.113453253471	1040.725399449352	630.978976610603	269.094264733480	1123.816655756667	544.557316552296	326.460062087894	1115.839221945621	462.459270194542	321.477154321424	1054.671389884206	403.078999331328	315.092204200342	920.658421352362	341.041032697484	269.021624821037	926.936466829727	211.368685192512	324.932419875262	1126.035309432430	407.026701725294	561.504848253593	1055.508663575051	303.803242613631	624.783085489029	1097.707589239604	207.942528607934	563.187335659583	966.109534567696	43.249525148337	535.355817288006	1136.163944822161	97.764366966476	573.351858411697	1048.555690843233	37.597471090525	611.555847082082	1256.769575418375	44.919641634845	603.125516774392	752.424473060726	110.495441873381	369.820982017157	814.330426217581	76.913031370323	288.006869370190	914.138338659569	110.577163410419	304.829898094122	1014.371229706548	35.006165210930	275.223428429753	1073.509909763335	1082.414664081514	166.832069514574	1203.218768800414	854.490329048504	147.617353399433	979.528109404089	1109.976884512103	755.997296537847	1184.719080609453	954.452749648494	765.886601545804	
91	15.876428571429	870.127167500895	999.996420665876	464.197943440661	1050.236110973345	1432.717789569634	288.856904135349	1138.363683756221	1372.034686391912	461.072498771336	1033.211725375256	1443.932326760657	623.602019306492	1019.987911796419	1496.058253191280	440.602925956057	1094.369055699926	948.270250614106	597.917636476402	1095.081108979542	964.214817378682	322.730743546876	1145.639870445097	745.808299417198	569.441927814859	1065.036222490814	634.087775322331	626.707718505339	1147.431711988706	583.950013368935	550.219257907082	1150.302835445365	495.748966959928	556.010709430427	1134.316907082106	743.625762852280	343.003051190007	1048.579988499402	631.077540904117	270.261492662584	1134.361184292460	546.485475505985	327.222361026278	1127.648687194193	463.336799238523	321.646850314745	1064.700078722145	403.824620983927	315.452474616707	928.735787675019	346.170047109219	269.263622472346	931.030042910738	216.419840970544	324.884884921411	1122.385289503755	406.482514932278	563.202291106892	1051.422558855701	303.364216833637	626.080676494980	1093.074120527324	207.542895925449	563.964594260138	960.701474702741	43.203445159772	535.454728541061	1130.872286968906	97.572802696445	573.639600880854	1043.149242471400	37.508124002568	611.748953362621	1251.443006158746	44.488067127005	603.262839997355	752.740940195061	123.580123110897	369.419320499854	813.006639773320	86.526050490219	287.767831061185	914.470352842221	114.947605859715	304.520310788385	1009.827835069032	34.210349263344	275.415127055319	1067.327834421543	1082.233398316032	169.323667676406	1187.244515679963	849.399507746772	147.496334305145	984.363390530197	1111.118387109424	762.318497357185	1195.884784638929	965.033028184272	769.235755696150	
92	15.889500000000	869.283179401553	1000.137363876243	468.539873279443	1048.989811300464	1432.507837515685	291.787912540793	1138.895721741214	1371.440243086938	462.966934596650	1035.935397505446	1443.679644386126	626.688435658382	1020.657127877413	1495.885023842246	443.970542965618	1094.665483793862	947.669012212973	599.921743093131	1092.762841588884	963.857619163928	324.975555468576	1144.291026074917	744.984724873296	572.084246977482	1062.588560683178	633.795707793636	628.982966350241	1144.663703616041	583.233089158428	552.479056579373	1146.694247271322	495.136524793769	557.898763480992	1137.664644835520	745.984676118707	344.729019798113	1056.383612241825	631.483074437616	271.315549809780	1144.790949176884	548.938876688750	327.911179043585	1139.524722887781	464.829377907504	321.950091308157	1075.021752747093	405.001964565725	315.899472795878	937.331630465868	351.551483473174	269.492286724139	935.708485031696	221.863909951177	325.012671052680	1118.624341378194	405.938752427300	564.788394482918	1047.287492313384	302.913444530692	627.350350536980	1088.385284951481	207.141876754828	564.702219923232	955.274468819569	43.139824872906	535.587230703923	1125.556361840788	97.384013806522	573.906544538509	1037.730948247635	37.419269018191	611.950853496239	1246.098394907269	44.099407981778	603.368038539730	753.945169839976	137.022293950271	369.138344002910	812.579521899230	96.776180280405	287.612335837264	915.518830449050	119.928129936591	304.462545717747	1005.999627252906	33.496184562010	275.680756906917	1060.633063696937	1082.031171450981	171.574567471925	1171.215528960535	845.002273437456	147.709617513550	989.559434594056	1112.173177209512	768.559685086392	1206.850479416439	975.644891795705	772.245270531046	
93	15.902571428571	868.242419835076	1000.316958091621	472.730437330199	1047.756118202509	1432.254186985771	294.544835762280	1139.457346270712	1370.698578319575	464.623063816019	1038.846399601862	1443.345102257422	629.592024034034	1021.456865485313	1495.685255545896	447.158205206335	1094.735558330488	947.022519506244	601.734485753598	1090.203357203509	963.358090760220	327.005302717893	1142.720121172572	744.189741719488	574.297435474516	1060.207719863951	633.524009527147	631.120007819720	1141.743697841053	582.541533730040	554.383537072155	1142.975078885536	494.550127203508	559.560915561854	1140.737566042807	748.644794181532	346.309041072850	1063.871847294416	632.284246412558	272.273425016026	1154.833612739606	551.964302748822	328.502721252601	1151.194316599347	466.987271199856	322.319061633760	1085.389171889047	406.672124612128	316.384805593239	946.207087094039	357.082241574962	269.731195191471	940.932282813015	227.540300128903	325.292633442975	1114.769344493222	405.419670964041	566.227045374425	1043.119475518635	302.479323195019	628.565706834003	1083.664408927381	206.764794900605	565.385648370911	949.858567233596	43.070998237851	535.749671406453	1120.241317933952	97.215138745920	574.156673504194	1032.328904410328	37.339248114825	612.158528938098	1240.760715150014	43.774165347854	603.459134873983	756.118952687122	150.232141136840	368.998408232886	813.228375966602	107.194446628946	287.556873951881	917.420853205186	125.336130169500	304.633886160494	1003.272497863646	32.966639379169	275.999579199278	1053.383592991692	1081.857217718741	173.667657071855	1155.191853920200	841.280320082546	148.243356352331	995.180720439859	1113.162907099739	774.650911241156	1217.638366816955	986.209851648452	774.885871931588	
94	15.915642857143	867.052301178931	1000.582632356888	476.749251480147	1046.536850928570	1432.021000728005	297.109454790303	1140.024684781907	1369.886104313150	466.033387642524	1041.886478744333	1442.986181185032	632.283048715522	1022.360176671761	1495.511461531374	450.132025527522	1094.605820790929	946.394681406103	603.369293936281	1087.473459949627	962.821488029993	328.823098796729	1140.944206708543	743.443815307472	576.076902889095	1057.867758576059	633.290492482934	633.082665437660	1138.672538327187	581.889134041781	555.932368932853	1139.142492213459	494.008901794369	560.972240338504	1143.430244936469	751.626530794593	347.770340785803	1070.811638305903	633.542794850982	273.150670851436	1164.256282512585	555.572788834537	328.970630267054	1162.407961945461	469.825359332178	322.669227956975	1095.581220669024	408.863697165523	316.844810406817	955.145957259105	362.610409273472	269.993974839070	946.706268460025	233.230155303815	325.678842843023	1110.812523751877	404.947647878240	567.495449237138	1038.905206646442	302.087061888531	629.704882304531	1078.915839446715	206.433989785902	566.006190591427	944.470057254337	43.006739675410	535.935230670078	1114.940583180457	97.075360657121	574.392107880054	1026.957670390791	37.272543511902	612.367674430271	1235.442667119248	43.522214720073	603.550309452238	759.368416980056	162.532243100450	369.006005290134	815.158156633694	117.212440383900	287.603371369666	920.359202347117	130.904401621316	304.981000624761	1002.099029780335	32.726412622940	276.329669417830	1045.564064707132	1081.769693802461	175.691024272398	1139.216937064003	838.213765064821	149.077916560483	1001.269144912863	1114.122878705121	780.516986090285	1228.269884970481	996.670221142502	777.123594462299	
